<svg width="16" height="16" viewBox="0 0 16 16" fill="none" xmlns="http://www.w3.org/2000/svg">
<g clip-path="url(#clip0_172_2)">
<path d="M7.99999 13.9998C8.78792 13.9998 9.56814 13.8446 10.2961 13.5431C11.024 13.2416 11.6855 12.7996 12.2426 12.2425C12.7998 11.6853 13.2417 11.0239 13.5433 10.2959C13.8448 9.56798 14 8.78777 14 7.99984C14 7.21191 13.8448 6.43169 13.5433 5.70374C13.2417 4.97578 12.7998 4.31435 12.2426 3.7572C11.6855 3.20004 11.024 2.75809 10.2961 2.45656C9.56814 2.15503 8.78792 1.99984 7.99999 1.99984C6.40869 1.99984 4.88257 2.63198 3.75735 3.7572C2.63213 4.88241 1.99999 6.40854 1.99999 7.99984C1.99999 9.59114 2.63213 11.1173 3.75735 12.2425C4.88257 13.3677 6.40869 13.9998 7.99999 13.9998ZM15.3333 7.99984C15.3333 12.0498 12.05 15.3332 7.99999 15.3332C3.94999 15.3332 0.666656 12.0498 0.666656 7.99984C0.666656 3.94984 3.94999 0.666504 7.99999 0.666504C12.05 0.666504 15.3333 3.94984 15.3333 7.99984ZM6.34999 6.3505C5.91238 6.78811 5.66654 7.38163 5.66654 8.0005C5.66654 8.61937 5.91238 9.2129 6.34999 9.6505C6.7876 10.0881 7.38112 10.334 7.99999 10.334C8.61886 10.334 9.21238 10.0881 9.64999 9.6505L10.1213 9.1785L11.064 10.1218L10.5927 10.5932C10.0799 11.106 9.42653 11.4552 8.71527 11.5967C8.004 11.7382 7.26674 11.6656 6.59674 11.3881C5.92673 11.1106 5.35407 10.6406 4.95116 10.0376C4.54826 9.43463 4.33321 8.72571 4.33321 8.0005C4.33321 7.2753 4.54826 6.56638 4.95116 5.9634C5.35407 5.36041 5.92673 4.89045 6.59674 4.61293C7.26674 4.33541 8.004 4.26281 8.71527 4.4043C9.42653 4.5458 10.0799 4.89503 10.5927 5.40784L11.064 5.87917L10.1213 6.82184L9.64999 6.3505C9.43332 6.13381 9.17608 5.96192 8.89297 5.84464C8.60986 5.72736 8.30643 5.667 7.99999 5.667C7.69355 5.667 7.39012 5.72736 7.10701 5.84464C6.8239 5.96192 6.56666 6.13381 6.34999 6.3505Z" fill="#8B8B8B"/>
</g>
<defs>
<clipPath id="clip0_172_2">
<rect width="16" height="16" fill="white"/>
</clipPath>
</defs>
</svg>
