<svg width="32" height="32" viewBox="0 0 32 32" fill="none" xmlns="http://www.w3.org/2000/svg">
<path fill-rule="evenodd" clip-rule="evenodd" d="M7.29343 7.29245C7.48093 7.10519 7.7351 7 8.0001 7C8.2651 7 8.51926 7.10519 8.70676 7.29245L24.7068 23.2925C24.805 23.384 24.8838 23.4944 24.9385 23.6171C24.9931 23.7397 25.0225 23.8722 25.0249 24.0064C25.0273 24.1407 25.0026 24.2741 24.9523 24.3986C24.902 24.5231 24.8271 24.6362 24.7321 24.7312C24.6372 24.8261 24.5241 24.901 24.3996 24.9513C24.275 25.0016 24.1417 25.0263 24.0074 25.0239C23.8731 25.0215 23.7407 24.9922 23.618 24.9375C23.4954 24.8828 23.385 24.804 23.2934 24.7058L7.29343 8.70579C7.10616 8.51829 7.00098 8.26412 7.00098 7.99912C7.00098 7.73412 7.10616 7.47995 7.29343 7.29245Z" fill="black"/>
<path fill-rule="evenodd" clip-rule="evenodd" d="M24.7071 7.29245C24.8944 7.47995 24.9996 7.73412 24.9996 7.99912C24.9996 8.26412 24.8944 8.51829 24.7071 8.70579L8.70711 24.7058C8.51755 24.8824 8.26682 24.9786 8.00775 24.974C7.74868 24.9694 7.5015 24.8645 7.31828 24.6813C7.13507 24.4981 7.03012 24.2509 7.02555 23.9918C7.02098 23.7327 7.11714 23.482 7.29378 23.2925L23.2938 7.29245C23.4813 7.10519 23.7354 7 24.0004 7C24.2654 7 24.5196 7.10519 24.7071 7.29245Z" fill="black"/>
</svg>
