<svg width="48" height="48" viewBox="0 0 48 48" fill="none" xmlns="http://www.w3.org/2000/svg">
<path d="M15.4585 18.49L16.5465 22.338C15.1268 22.7414 13.8281 23.4877 12.7648 24.5112C11.7015 25.5347 10.9062 26.804 10.449 28.2072C9.99177 29.6105 9.88667 31.1047 10.1429 32.5581C10.3992 34.0115 11.009 35.3797 11.9185 36.5419C12.8281 37.7042 14.0095 38.625 15.3588 39.2231C16.708 39.8212 18.1836 40.0784 19.6556 39.9719C21.1277 39.8654 22.5509 39.3985 23.8 38.6124C25.0491 37.8263 26.0857 36.7451 26.8185 35.464L27.0225 35.09L30.5825 36.91C29.6101 38.8127 28.1838 40.4463 26.4297 41.6664C24.6756 42.8865 22.6477 43.6555 20.5257 43.9052C18.4036 44.1549 16.2527 43.8776 14.2632 43.098C12.2738 42.3184 10.5072 41.0604 9.11981 39.4354C7.73239 37.8104 6.7669 35.8685 6.30878 33.7815C5.85066 31.6944 5.91404 29.5266 6.4933 27.4699C7.07257 25.4132 8.14986 23.531 9.62985 21.9898C11.1098 20.4487 12.9469 19.2961 14.9785 18.634L15.4585 18.49ZM22.0025 4C23.3239 3.9993 24.6085 4.43482 25.6571 5.23898C26.7056 6.04314 27.4593 7.17094 27.8013 8.44732C28.1432 9.72371 28.0543 11.0773 27.5482 12.2979C27.0421 13.5186 26.1472 14.538 25.0025 15.198V17.838L28.4885 19H32.0025C32.7981 19 33.5612 19.3161 34.1238 19.8787C34.6864 20.4413 35.0025 21.2044 35.0025 22C35.0025 22.7956 34.6864 23.5587 34.1238 24.1213C33.5612 24.6839 32.7981 25 32.0025 25H28.0025C27.6785 25 27.3625 24.9487 27.0545 24.846L25.0025 24.162V26C25.0025 26.2652 25.1078 26.5196 25.2954 26.7071C25.4829 26.8946 25.7372 27 26.0025 27H30.0025C31.0892 27 32.161 27.253 33.133 27.739C34.1049 28.225 34.9504 28.9306 35.6025 29.8L39.5025 35H40.0025C40.7981 35 41.5612 35.3161 42.1238 35.8787C42.6864 36.4413 43.0025 37.2043 43.0025 38C43.0025 38.7957 42.6864 39.5587 42.1238 40.1213C41.5612 40.6839 40.7981 41 40.0025 41H38.0025C37.5367 41 37.0774 40.8916 36.6608 40.6833C36.2443 40.475 35.8819 40.1726 35.6025 39.8L30.8025 33.4C30.7093 33.2758 30.5885 33.175 30.4497 33.1056C30.3108 33.0361 30.1577 33 30.0025 33H26.0025C24.1459 33 22.3655 32.2625 21.0527 30.9497C19.74 29.637 19.0025 27.8565 19.0025 26V15.198C17.8577 14.538 16.9628 13.5186 16.4567 12.2979C15.9507 11.0773 15.8617 9.72371 16.2036 8.44732C16.5456 7.17094 17.2993 6.04314 18.3479 5.23898C19.3964 4.43482 20.6811 3.9993 22.0025 4Z" fill="black"/>
</svg>
