<svg width="52" height="52" viewBox="0 0 52 52" fill="none" xmlns="http://www.w3.org/2000/svg">
<g opacity="0.8">
<path d="M26.0022 19.5002C24.2783 19.5002 22.625 20.185 21.406 21.404C20.187 22.623 19.5022 24.2763 19.5022 26.0002C19.5022 27.7241 20.187 29.3774 21.406 30.5964C22.625 31.8153 24.2783 32.5002 26.0022 32.5002C27.7261 32.5002 29.3794 31.8153 30.5984 30.5964C31.8174 29.3774 32.5022 27.7241 32.5022 26.0002C32.5022 24.2763 31.8174 22.623 30.5984 21.404C29.3794 20.185 27.7261 19.5002 26.0022 19.5002ZM26.0022 15.1668C28.8754 15.1668 31.6309 16.3082 33.6625 18.3398C35.6942 20.3715 36.8355 23.127 36.8355 26.0002C36.8355 28.8733 35.6942 31.6288 33.6625 33.6605C31.6309 35.6921 28.8754 36.8335 26.0022 36.8335C23.129 36.8335 20.3735 35.6921 18.3419 33.6605C16.3102 31.6288 15.1689 28.8733 15.1689 26.0002C15.1689 23.127 16.3102 20.3715 18.3419 18.3398C20.3735 16.3082 23.129 15.1668 26.0022 15.1668ZM40.0855 14.6252C40.0855 15.3435 39.8002 16.0323 39.2923 16.5402C38.7844 17.0482 38.0955 17.3335 37.3772 17.3335C36.6589 17.3335 35.97 17.0482 35.4621 16.5402C34.9542 16.0323 34.6689 15.3435 34.6689 14.6252C34.6689 13.9069 34.9542 13.218 35.4621 12.7101C35.97 12.2022 36.6589 11.9168 37.3772 11.9168C38.0955 11.9168 38.7844 12.2022 39.2923 12.7101C39.8002 13.218 40.0855 13.9069 40.0855 14.6252ZM26.0022 8.66683C20.6419 8.66683 19.7665 8.682 17.2727 8.7925C15.574 8.87266 14.4344 9.10016 13.377 9.51183C12.4927 9.83763 11.6929 10.3582 11.037 11.035C10.3595 11.6907 9.83814 12.4904 9.51171 13.375C9.10004 14.4367 8.87254 15.5742 8.79454 17.2707C8.68187 19.6627 8.66671 20.499 8.66671 26.0002C8.66671 31.3627 8.68187 32.2358 8.79237 34.7297C8.87254 36.4262 9.10004 37.568 9.50954 38.6232C9.87787 39.5657 10.3112 40.2438 11.0305 40.9632C11.7607 41.6912 12.4389 42.1267 13.3705 42.4863C14.4409 42.9002 15.5805 43.1298 17.2705 43.2078C19.6625 43.3205 20.4989 43.3335 26 43.3335C31.3625 43.3335 32.2357 43.3183 34.7295 43.2078C36.4239 43.1277 37.5635 42.9002 38.623 42.4907C39.5074 42.1649 40.3071 41.6443 40.963 40.9675C41.6932 40.2395 42.1287 39.5613 42.4884 38.6275C42.9 37.5615 43.1297 36.4218 43.2077 34.7275C43.3204 32.3377 43.3334 31.4992 43.3334 26.0002C43.3334 20.6398 43.3182 19.7645 43.2077 17.2707C43.1275 15.5763 42.8979 14.4323 42.4884 13.375C42.1626 12.4906 41.642 11.6909 40.9652 11.035C40.3095 10.3574 39.5098 9.8361 38.6252 9.50966C37.5635 9.098 36.4239 8.8705 34.7295 8.7925C32.3397 8.67983 31.5034 8.66683 26 8.66683M26 4.3335C31.8869 4.3335 32.6214 4.35516 34.9332 4.4635C37.2385 4.57183 38.8115 4.93366 40.1917 5.471C41.6217 6.02133 42.8264 6.76666 44.031 7.96916C45.1332 9.05192 45.9858 10.3622 46.5292 11.8085C47.0644 13.1887 47.4284 14.7617 47.5367 17.0692C47.6385 19.3788 47.6667 20.1133 47.6667 26.0002C47.6667 31.887 47.645 32.6215 47.5367 34.9312C47.4284 37.2408 47.0644 38.8095 46.5292 40.1918C45.9858 41.6381 45.1332 42.9484 44.031 44.0312C42.9483 45.1333 41.638 45.9859 40.1917 46.5293C38.8115 47.0645 37.2385 47.4285 34.9332 47.5368C32.6214 47.6387 31.8869 47.6668 26 47.6668C20.1132 47.6668 19.3787 47.6452 17.0669 47.5368C14.7615 47.4285 13.1907 47.0645 11.8084 46.5293C10.3621 45.9859 9.05179 45.1333 7.96904 44.0312C6.86687 42.9484 6.01431 41.6381 5.47087 40.1918C4.93354 38.8117 4.57171 37.2387 4.46337 34.9312C4.35937 32.6215 4.33337 31.887 4.33337 26.0002C4.33337 20.1133 4.35504 19.3788 4.46337 17.0692C4.57171 14.7595 4.93354 13.1908 5.47087 11.8085C6.01431 10.3622 6.86687 9.05192 7.96904 7.96916C9.05179 6.86699 10.3621 6.01443 11.8084 5.471C13.1885 4.93366 14.7594 4.57183 17.0669 4.4635C19.3809 4.36166 20.1154 4.3335 26.0022 4.3335" fill="#8B8B8B"/>
</g>
</svg>
