<svg width="25" height="25" viewBox="0 0 25 25" fill="none" xmlns="http://www.w3.org/2000/svg">
<path d="M12.5024 1.5625C10.224 1.56508 8.03965 2.47133 6.42857 4.08241C4.81749 5.69349 3.91125 7.87784 3.90866 10.1563C3.90866 17.5098 11.7212 23.0635 12.0542 23.2959C12.1855 23.3879 12.342 23.4373 12.5024 23.4373C12.6628 23.4373 12.8193 23.3879 12.9507 23.2959C13.2837 23.0635 21.0962 17.5098 21.0962 10.1563C21.0936 7.87784 20.1873 5.69349 18.5763 4.08241C16.9652 2.47133 14.7808 1.56508 12.5024 1.5625ZM12.5024 7.03125C13.1205 7.03125 13.7247 7.21453 14.2386 7.55791C14.7525 7.90129 15.153 8.38935 15.3895 8.96036C15.6261 9.53138 15.6879 10.1597 15.5674 10.7659C15.4468 11.3721 15.1492 11.9289 14.7121 12.366C14.2751 12.803 13.7183 13.1006 13.1121 13.2212C12.5059 13.3418 11.8775 13.2799 11.3065 13.0434C10.7355 12.8069 10.2474 12.4063 9.90407 11.8924C9.56069 11.3785 9.37741 10.7743 9.37741 10.1563C9.37741 9.32745 9.70665 8.53259 10.2927 7.94654C10.8788 7.36049 11.6736 7.03125 12.5024 7.03125Z" fill="#8B8B8B"/>
</svg>
