<svg width="56" height="56" viewBox="0 0 56 56" fill="none" xmlns="http://www.w3.org/2000/svg">
<g opacity="0.8">
<path d="M43 33.8441C43 43.318 34.4932 51 24 51C13.5068 51 5 43.318 5 33.8441V24H43V33.8441Z" stroke="#8B8B8B" stroke-width="4" stroke-linecap="round" stroke-linejoin="round"/>
<path d="M43.4246 23.9776C45.4337 23.9776 47.3606 24.8744 48.7812 26.4705C50.2019 28.0667 51 30.2315 51 32.4888C51 34.7461 50.2019 36.911 48.7812 38.5071C47.3606 40.1033 45.4337 41 43.4246 41H42.6738M38.8763 5C38.8763 8.84659 37.5163 12.5356 35.0954 15.2556C32.6745 17.9755 29.391 19.5036 25.9674 19.5036H17C17 15.657 18.36 11.968 20.781 9.248C23.2019 6.52805 26.4853 5 29.909 5H38.8763Z" stroke="#8B8B8B" stroke-width="4" stroke-linecap="round" stroke-linejoin="round"/>
</g>
</svg>
