<svg width="52" height="52" viewBox="0 0 52 52" fill="none" xmlns="http://www.w3.org/2000/svg">
<path d="M37.3774 4.875C37.3774 4.01305 37.7199 3.1864 38.3293 2.5769C38.9388 1.96741 39.7655 1.625 40.6274 1.625H47.1274C47.9894 1.625 48.816 1.96741 49.4255 2.5769C50.035 3.1864 50.3774 4.01305 50.3774 4.875V14.625C50.3774 15.487 50.035 16.3136 49.4255 16.9231C48.816 17.5326 47.9894 17.875 47.1274 17.875H45.5024V48.75C45.5024 49.181 45.3312 49.5943 45.0265 49.899C44.7217 50.2038 44.3084 50.375 43.8774 50.375C43.4465 50.375 43.0331 50.2038 42.7284 49.899C42.4236 49.5943 42.2524 49.181 42.2524 48.75V17.875H40.6274C39.7655 17.875 38.9388 17.5326 38.3293 16.9231C37.7199 16.3136 37.3774 15.487 37.3774 14.625V4.875ZM34.9399 4.875H16.9138C15.4349 4.87488 14.0001 5.37911 12.8465 6.30442C11.6928 7.22974 10.8891 8.52082 10.5682 9.9645L9.53144 14.625H8.12744C7.69646 14.625 7.28314 14.7962 6.97839 15.101C6.67365 15.4057 6.50244 15.819 6.50244 16.25C6.50244 16.681 6.67365 17.0943 6.97839 17.399C7.28314 17.7038 7.69646 17.875 8.12744 17.875H8.80994L8.27369 20.2881C7.24608 20.8466 6.38819 21.672 5.79046 22.6772C5.19273 23.6825 4.8773 24.8304 4.87744 26V42.25C4.87744 43.5429 5.39106 44.7829 6.3053 45.6971C7.21954 46.6114 8.45951 47.125 9.75244 47.125H11.3774C12.6704 47.125 13.9103 46.6114 14.8246 45.6971C15.7388 44.7829 16.2524 43.5429 16.2524 42.25V40.625H35.7524V42.25C35.7521 43.4023 36.1599 44.5175 36.9036 45.3978C37.6473 46.278 38.6787 46.8663 39.8149 47.0584V43.6572C39.5679 43.5146 39.3628 43.3095 39.2202 43.0625C39.0775 42.8155 39.0024 42.5352 39.0024 42.25V40.625H39.8149V20.2556C39.0653 20.1474 38.3449 19.8905 37.6959 19.5H11.7772L13.7402 10.6698C13.9006 9.94804 14.3023 9.30261 14.879 8.83997C15.4557 8.37732 16.1729 8.12513 16.9122 8.125H34.9399V4.875ZM8.12744 42.25V40.625H13.0024V42.25C13.0024 42.681 12.8312 43.0943 12.5265 43.399C12.2217 43.7038 11.8084 43.875 11.3774 43.875H9.75244C9.32146 43.875 8.90814 43.7038 8.60339 43.399C8.29865 43.0943 8.12744 42.681 8.12744 42.25ZM21.9399 34.125C21.509 34.125 21.0956 33.9538 20.7909 33.649C20.4861 33.3443 20.3149 32.931 20.3149 32.5C20.3149 32.069 20.4861 31.6557 20.7909 31.351C21.0956 31.0462 21.509 30.875 21.9399 30.875H30.0649C30.4959 30.875 30.9092 31.0462 31.214 31.351C31.5187 31.6557 31.6899 32.069 31.6899 32.5C31.6899 32.931 31.5187 33.3443 31.214 33.649C30.9092 33.9538 30.4959 34.125 30.0649 34.125H21.9399ZM17.8774 28.4375C17.8774 29.084 17.6206 29.704 17.1635 30.1611C16.7064 30.6182 16.0864 30.875 15.4399 30.875C14.7935 30.875 14.1735 30.6182 13.7164 30.1611C13.2592 29.704 13.0024 29.084 13.0024 28.4375C13.0024 27.791 13.2592 27.171 13.7164 26.7139C14.1735 26.2568 14.7935 26 15.4399 26C16.0864 26 16.7064 26.2568 17.1635 26.7139C17.6206 27.171 17.8774 27.791 17.8774 28.4375ZM36.5649 26C37.2114 26 37.8314 26.2568 38.2885 26.7139C38.7456 27.171 39.0024 27.791 39.0024 28.4375C39.0024 29.084 38.7456 29.704 38.2885 30.1611C37.8314 30.6182 37.2114 30.875 36.5649 30.875C35.9185 30.875 35.2985 30.6182 34.8414 30.1611C34.3843 29.704 34.1274 29.084 34.1274 28.4375C34.1274 27.791 34.3843 27.171 34.8414 26.7139C35.2985 26.2568 35.9185 26 36.5649 26Z" fill="black"/>
</svg>
