<svg width="25" height="25" viewBox="0 0 25 25" fill="none" xmlns="http://www.w3.org/2000/svg">
<path fill-rule="evenodd" clip-rule="evenodd" d="M17.2441 23.0553C15.7441 23.0001 11.493 22.4126 7.04094 17.9615C2.5899 13.5094 2.00344 9.25945 1.94719 7.75841C1.86386 5.47091 3.61594 3.24903 5.6399 2.38132C5.88363 2.27608 6.15053 2.23601 6.41441 2.26505C6.6783 2.29408 6.9301 2.39123 7.14511 2.54695C8.81178 3.76153 9.96177 5.59903 10.9493 7.04382C11.1665 7.36125 11.2594 7.74752 11.2103 8.12903C11.1611 8.51054 10.9733 8.86062 10.6826 9.11257L8.65032 10.6219C8.55213 10.6928 8.48302 10.797 8.45581 10.915C8.42861 11.033 8.44516 11.1569 8.5024 11.2636C8.96282 12.1001 9.78157 13.3459 10.7191 14.2834C11.6566 15.2209 12.9618 16.0938 13.8566 16.6063C13.9688 16.6693 14.1008 16.6869 14.2256 16.6555C14.3504 16.6241 14.4584 16.5461 14.5274 16.4376L15.8503 14.424C16.0935 14.101 16.4523 13.8845 16.8515 13.8201C17.2508 13.7556 17.6594 13.8481 17.992 14.0782C19.4576 15.0928 21.168 16.223 22.4201 17.8261C22.5885 18.0427 22.6956 18.3005 22.7302 18.5726C22.7648 18.8447 22.7257 19.1212 22.617 19.373C21.7451 21.4074 19.5389 23.1397 17.2441 23.0553Z" fill="#8B8B8B"/>
</svg>
