<svg width="52" height="52" viewBox="0 0 52 52" fill="none" xmlns="http://www.w3.org/2000/svg">
<path d="M16.2524 15.1667C18.6456 15.1667 20.5857 13.2266 20.5857 10.8333C20.5857 8.4401 18.6456 6.5 16.2524 6.5C13.8592 6.5 11.9191 8.4401 11.9191 10.8333C11.9191 13.2266 13.8592 15.1667 16.2524 15.1667Z" fill="black" stroke="black" stroke-width="2" stroke-linecap="round" stroke-linejoin="round"/>
<path d="M35.7524 15.1667C38.1456 15.1667 40.0857 13.2266 40.0857 10.8333C40.0857 8.4401 38.1456 6.5 35.7524 6.5C33.3592 6.5 31.4191 8.4401 31.4191 10.8333C31.4191 13.2266 33.3592 15.1667 35.7524 15.1667Z" fill="black" stroke="black" stroke-width="2" stroke-linecap="round" stroke-linejoin="round"/>
<path d="M10.8358 21.6667H21.6691L19.5024 45.5001H13.0024L10.8358 21.6667ZM30.3358 21.6667H41.1691L43.3358 33.5834H40.0858L39.0024 45.5001H32.5024L31.4191 33.5834H28.1691L30.3358 21.6667Z" fill="black" stroke="black" stroke-width="2" stroke-linecap="round" stroke-linejoin="round"/>
</svg>
